<?xml version="1.0" encoding="utf-8"?>
<!-- Generator: Adobe Illustrator 19.0.0, SVG Export Plug-In . SVG Version: 6.00 Build 0)  -->
<svg version="1.1" id="ffd51b1e-d9cd-4f1b-a84c-ada8a80364ab"
	 xmlns="http://www.w3.org/2000/svg" xmlns:xlink="http://www.w3.org/1999/xlink" x="0px" y="0px" viewBox="258 -13.5 373 645"
	 style="enable-background:new 258 -13.5 373 645;" xml:space="preserve">
<style type="text/css">
	.st0{opacity:0.2;}
	.st1{fill:#3F3D56;}
	.st2{fill:#700282;}
	.st3{opacity:0.1;enable-background:new    ;}
	.st4{opacity:0.1;fill:#700282;enable-background:new    ;}
	.st5{opacity:0.1;fill:none;stroke:#700282;stroke-width:3;stroke-miterlimit:10;enable-background:new    ;}
	.st6{fill:#FFFFFF;}
	.st7{opacity:0.6;}
	.st8{fill:url(#SVGID_1_);}
	.st9{fill:#A1616A;}
	.st10{opacity:0.15;enable-background:new    ;}
	.st11{fill:#FF6F61;}
	.st12{fill:#FBBEBE;}
	.st13{opacity:0.1;}
	.st14{fill:#3ACC6C;}
</style>
<title>followers</title>
<g class="st0">
	<path class="st1" d="M555.8,401.2c-2.3,1.4-4.7,2.7-7.1,4.1c-0.4,0.2-0.7,0.4-1.1,0.6c-1.8,1-3.7,1.9-5.5,2.8c0-0.1,0-0.3,0.1-0.4
		c0.2-1.5,0.7-3,1.4-4.4c0.3-0.7,0.7-1.3,1.2-1.8c1.8-2.3,4.4-3.6,7-3.2C553.3,399.1,554.7,400,555.8,401.2z"/>
	<path class="st1" d="M560,397.7c0,0.3-0.1,0.7-0.2,1c-1.3,0.9-2.7,1.7-4.1,2.5c-2.3,1.4-4.7,2.7-7.1,4.1c-0.4,0.2-0.7,0.4-1.1,0.6
		c-0.5-0.3-0.9-0.7-1.2-1.1c-0.7-0.8-1.2-1.7-1.6-2.7c-1.7-4.3-1-9.2,1.8-12.9c1.8-2.3,4.4-3.6,7-3.2s4.7,2.3,5.8,5
		C560.1,393.2,560.4,395.5,560,397.7z"/>
	
		<ellipse transform="matrix(-0.9898 -0.1423 0.1423 -0.9898 1047.4688 842.306)" class="st1" cx="553.8" cy="383.7" rx="8.1" ry="10.6"/>
	<path class="st2" d="M608.3,277.3c-0.8,5.6-2.8,10.9-5.8,15.6l-22.8-3.4l20.6,6.5c-1.1,1.4-2.3,2.7-3.6,4c9,15.6,6.2,35.2-6.8,47.6
		c3.7,6.4,5.5,13.7,5.2,21c-9.7,11.3-21.5,21.4-35.1,30.1c-1.3,0.9-2.7,1.7-4.1,2.5c-2.3,1.4-4.7,2.7-7.1,4.1
		c-0.8-0.2-1.6-0.3-2.4-0.5c-1-0.2-1.9-0.5-2.8-0.8c-20.4-6.9-31.2-29-24.3-49.4c2-6,5.5-11.3,10-15.7c-0.4-0.7-0.8-1.4-1.1-2.1l0,0
		c-0.1-0.2-0.2-0.4-0.3-0.6c-2.8-5.9-4.1-12.4-3.7-19l0-0.7c0-0.4,0.1-0.7,0.1-1.1c0.1-0.5,0.1-1,0.2-1.6v0c0.6-4.2,1.9-8.2,3.8-12
		l27.8,14l-25.4-18.2c1.6-2.3,3.4-4.5,5.4-6.4c-10.8-18.6-4.4-42.4,14.2-53.2c18.6-10.8,42.4-4.4,53.2,14.2c0.9,1.6,1.7,3.3,2.4,5
		L574.6,274l32.9-11.5C608.7,267.4,609,272.4,608.3,277.3z"/>
	<path class="st3" d="M594.9,368.6c-9.7,11.3-21.5,21.4-35.1,30.1c-1.3,0.9-2.7,1.7-4.1,2.5c-2.3,1.4-4.7,2.7-7.1,4.1
		c-0.8-0.2-1.6-0.3-2.4-0.5c-1-0.2-1.9-0.5-2.8-0.8c-20.3-6.9-31.2-29-24.3-49.4c2-5.9,5.4-11.3,10-15.6c-0.4-0.7-0.8-1.4-1.1-2.1
		l0,0c-0.1-0.2-0.2-0.4-0.3-0.6c-2.8-5.9-4.1-12.4-3.7-19l0-0.7c0-0.4,0.1-0.7,0.1-1.1c0.1-0.5,0.1-1,0.2-1.6v0
		c0.2-0.8,3.4-0.1,8.2,1.5l0,0l1,0.4c1.1,0.4,2.2,0.8,3.4,1.3l0,0c2.6,1,5.5,2.2,8.5,3.5l0,0l0.2,0.1l0,0l0.4,0.2l0,0
		c20.5,8.9,47.4,23.1,43.5,26.8C593.4,354,595.2,361.2,594.9,368.6z"/>
</g>
<g class="st0">
	<path class="st1" d="M369.7,418.4c-1.3-0.4-2.6-0.9-3.8-1.4c-3-1.1-5.9-2.2-8.7-3.5c0.6-0.5,1.2-0.8,1.9-1.1c2.6-0.9,5.4,0,7.7,2
		C368,415.6,369,416.9,369.7,418.4z"/>
	<path class="st1" d="M366.7,414.5c-0.2,0.9-0.5,1.7-0.9,2.6c-3-1.1-5.9-2.2-8.7-3.5c-2.5-1-4.9-2.1-7.4-3.3
		c-0.1-0.7-0.2-1.5-0.1-2.2c0-0.8,0.1-1.5,0.2-2.3c0.6-3,2.4-5.4,4.9-6.3c2.6-0.9,5.4,0,7.7,2c0.6,0.5,1.1,1,1.5,1.6
		c1,1.3,1.8,2.8,2.3,4.3C367,409.7,367.2,412.1,366.7,414.5z"/>
	
		<ellipse transform="matrix(-0.3014 -0.9535 0.9535 -0.3014 81.9785 854.348)" class="st1" cx="354" cy="397.1" rx="11.2" ry="8.4"/>
	
		<ellipse transform="matrix(-0.3014 -0.9535 0.9535 -0.3014 88.7745 833.2968)" class="st1" cx="349.7" cy="384.1" rx="11.2" ry="8.4"/>
	<path class="st2" d="M363.9,403.1c-0.9,0.5-1.7,1-2.6,1.4c-1.4,0.7-2.9,1.3-4.5,1.8c-1.4,0.5-2.8,0.9-4.2,1.2c-1,0.2-2,0.4-3,0.5
		c-1.2,0.2-2.5,0.3-3.7,0.3c-14.8-7.4-28.1-16.4-39.5-26.7c-0.2-0.4-0.3-0.9-0.5-1.3c-2.9-8.7-2.9-18.2,0.1-26.9
		c-7.6-5.1-13.3-12.6-16.1-21.3c-1.4-4.3-2.1-8.7-2.1-13.2H320l-31.8-5.1c0.4-2.9,1-5.8,2-8.6c-7.6-5.1-13.3-12.6-16.1-21.3
		c-7.1-21.5,4.1-44.8,25.1-52c14-4.8,28.9-1.2,39.3,8.1l-20.9,30.6l24.9-26.5c3.4,4,5.9,8.6,7.6,13.6c1.9,5.6,2.5,11.6,1.9,17.5
		l-22.6,7.6l22-3.7c-0.4,1.9-0.9,3.7-1.5,5.5c7.6,5.1,13.3,12.6,16.1,21.3c1.4,4.1,2.1,8.5,2.1,12.8v0c0,0.3,0,0.7,0,1
		c0,0.1,0,0.3,0,0.4c-0.1,4.3-0.9,8.5-2.3,12.6c3.1,2.1,5.9,4.6,8.3,7.4c0.1,0.1,0.1,0.1,0.2,0.2c3.4,4,6,8.7,7.6,13.7
		C388.2,373.3,380.2,393.6,363.9,403.1z"/>
	<path class="st3" d="M363.9,403.1c-0.9,0.5-1.7,1-2.6,1.4c-1.4,0.7-2.9,1.3-4.5,1.8c-1.4,0.5-2.8,0.9-4.2,1.2c-1,0.2-2,0.4-3,0.5
		c-1.2,0.2-2.5,0.3-3.7,0.3c-14.8-7.4-28.1-16.4-39.5-26.7c-0.2-0.4-0.3-0.9-0.5-1.3c-2.9-8.7-2.9-18.2,0.1-26.9
		c-7.6-5.1-13.3-12.6-16.1-21.3c-1.1-3.3,44.8-6,65.8-3.4l0.5,0.1c6.4,0.8,10.3,2.1,9.6,4.1c3.1,2.1,5.9,4.6,8.3,7.4
		c0.1,0.1,0.1,0.1,0.2,0.2c3.4,4,6,8.7,7.6,13.7C388.2,373.3,380.2,393.6,363.9,403.1z"/>
</g>
<path class="st4" d="M459.7,243.3c0.2-0.2,0.3-0.5,0.3-0.8c0-1.8-3.6-3.2-8-3.2c-4.4,0-8,1.4-8,3.2c0,0.3,0.1,0.7,0.3,0.9
	c-4.9,0.5-8.3,1.6-8.3,2.8c0,1.8,7.4,3.2,16.4,3.2c9.1,0,16.4-1.4,16.4-3.2C468.9,244.9,465.1,243.8,459.7,243.3z"/>
<path class="st4" d="M516.5,223.3c0.3-0.4,0.4-0.8,0.4-1.3c0-2.8-5.7-5.1-12.7-5.1s-12.7,2.3-12.7,5.1c0,0.5,0.2,1,0.5,1.4
	c-7.8,0.9-13.1,2.5-13.1,4.4c0,2.8,11.7,5.1,26.1,5.1c14.4,0,26.1-2.3,26.1-5.1C531,225.9,525.1,224.2,516.5,223.3z"/>
<path class="st4" d="M414.3,223.3c0.3-0.4,0.4-0.8,0.4-1.3c0-2.8-5.7-5.1-12.7-5.1c-7,0-12.7,2.3-12.7,5.1c0,0.5,0.2,1,0.5,1.4
	c-7.8,0.9-13.1,2.5-13.1,4.4c0,2.8,11.7,5.1,26.1,5.1c14.4,0,26.1-2.3,26.1-5.1C428.8,225.9,422.9,224.2,414.3,223.3z"/>
<path class="st5" d="M382,249.8c0.7-0.4,1.7,0,2.2,0.6c0.5,0.7,0.6,1.5,0.8,2.3c0.3,1.8,0.5,3.9-0.8,5.3c2-6.1,7.8-10.7,14.1-11.4"
	/>
<path class="st5" d="M878.4,57.5c1.5-0.9,3.5,0,4.5,1.3c0.9,1.5,1.5,3.2,1.6,4.9c0.6,3.8,1,8.2-1.6,11c4.5-12.9,16-22.2,29.5-23.8"
	/>
<path class="st5" d="M1143.4,30.5c1.5-0.9,3.5,0,4.5,1.3c0.9,1.5,1.5,3.2,1.6,4.9c0.6,3.8,1,8.2-1.6,11c4.5-12.9,16-22.2,29.6-23.8"
	/>
<ellipse class="st4" cx="450.4" cy="425.3" rx="167.9" ry="13.7"/>
<path class="st6" d="M319.8,268.6h257.5c3.1,0,5.7,2.5,5.7,5.7V417c0,3.1-2.5,5.7-5.7,5.7H319.8c-3.1,0-5.7-2.5-5.7-5.7V274.3
	C314.1,271.2,316.7,268.6,319.8,268.6z"/>
<path class="st1" d="M583,274.3v8.1H314.1v-8.1c0-3.1,2.5-5.7,5.7-5.7c0,0,0,0,0,0h257.5C580.4,268.6,583,271.2,583,274.3
	C583,274.3,583,274.3,583,274.3z"/>
<g class="st7">
	<path class="st2" d="M339.1,304.7h43c2.9,0,5.2,2.3,5.2,5.2v25.9c0,2.9-2.3,5.2-5.2,5.2h-43c-2.9,0-5.2-2.3-5.2-5.2v-25.9
		C333.9,307,336.2,304.7,339.1,304.7z"/>
	<path class="st6" d="M355.4,335.8c-4-2.6-5.5-7.6-3.7-12c-3.4-4.7-2.3-11.2,2.4-14.6s11.2-2.3,14.6,2.4c2.3,3.3,2.6,7.6,0.7,11.1
		c2.5,4.5,1.1,10.2-3.2,13.1c2.1,1.3,3.8,3.2,4.9,5.4h-20.5C351.6,338.9,353.3,337.1,355.4,335.8z"/>
</g>
<path class="st2" d="M425,364.2h43c2.9,0,5.2,2.3,5.2,5.2v25.9c0,2.9-2.3,5.2-5.2,5.2h-43c-2.9,0-5.2-2.3-5.2-5.2v-25.9
	C419.8,366.5,422.2,364.2,425,364.2z"/>
<path class="st6" d="M451.7,397.2c1.5,0.9,2.8,2.1,3.8,3.6h-18.4c1-1.5,2.3-2.7,3.8-3.6c-4-2.6-5.5-7.6-3.7-12
	c-3.4-4.7-2.3-11.2,2.4-14.6c4.7-3.4,11.2-2.3,14.6,2.4c2.3,3.3,2.6,7.6,0.7,11.1C457.5,388.6,456.1,394.3,451.7,397.2L451.7,397.2z
	"/>
<g class="st7">
	<path class="st2" d="M425,304.7h43c2.9,0,5.2,2.3,5.2,5.2v25.9c0,2.9-2.3,5.2-5.2,5.2h-43c-2.9,0-5.2-2.3-5.2-5.2v-25.9
		C419.8,307,422.2,304.7,425,304.7z"/>
	<path class="st6" d="M456.9,325.6c0.8,4-0.9,8-4.3,10.2c2.1,1.3,3.8,3.2,4.9,5.4h-20.5c1.1-2.3,2.8-4.1,4.9-5.4
		c-3.6-2.4-5.3-6.8-4.1-11c-0.1,0-0.3,0-0.4,0c-2.2,0-4-1.8-3.9-4c0-2.1,1.6-3.8,3.6-3.9c-0.2-0.5-0.3-1-0.3-1.5c0-2.2,1.8-4,4-4
		c1.7,0,3.1,1,3.7,2.6c1.3-1.2,3.2-1.4,4.7-0.5c1.9-1.1,4.3-0.5,5.5,1.4c0.1,0.1,0.2,0.3,0.2,0.4c2.2,0,3.9,1.7,4,3.9
		c1.4,1.7,1.2,4.2-0.5,5.6C458,325.1,457.5,325.4,456.9,325.6L456.9,325.6z"/>
</g>
<g class="st7">
	<path class="st2" d="M514.9,364.2h43c2.9,0,5.2,2.3,5.2,5.2v25.9c0,2.9-2.3,5.2-5.2,5.2h-43c-2.9,0-5.2-2.3-5.2-5.2v-25.9
		C509.8,366.5,512.1,364.2,514.9,364.2z"/>
	<path class="st6" d="M546.8,387c0.8,4-0.9,8-4.3,10.2c1.5,0.9,2.8,2.1,3.8,3.6H528c1-1.5,2.3-2.7,3.8-3.6c-3.6-2.4-5.3-6.8-4.1-11
		c-0.1,0-0.3,0-0.4,0c-2.2,0-4-1.8-3.9-4c0-2.1,1.6-3.8,3.6-3.9c-0.2-0.5-0.3-1-0.3-1.5c0-2.2,1.8-4,4-4c1.7,0,3.1,1,3.7,2.6
		c1.3-1.2,3.2-1.4,4.7-0.5c1.9-1.1,4.3-0.5,5.5,1.4c0.1,0.1,0.2,0.3,0.2,0.4c2.2,0,3.9,1.7,4,3.9c1.4,1.7,1.2,4.2-0.5,5.6
		C547.9,386.5,547.4,386.8,546.8,387L546.8,387z"/>
</g>
<path class="st2" d="M514.9,304.7h43c2.9,0,5.2,2.3,5.2,5.2v25.9c0,2.9-2.3,5.2-5.2,5.2h-43c-2.9,0-5.2-2.3-5.2-5.2v-25.9
	C509.8,307,512.1,304.7,514.9,304.7z"/>
<path class="st6" d="M546.6,341.2h-20.5c1.1-2.3,2.8-4.1,4.9-5.4c-4.2-2.8-5.7-8.3-3.3-12.8c-1.3-1-2.1-2.1-2.1-3.4
	c0-3.2,4.9-5.8,10.9-5.8c6,0,10.9,2.6,10.9,5.8c0,1.3-0.9,2.6-2.3,3.6c2.2,4.5,0.8,9.9-3.4,12.6C543.8,337.1,545.5,339,546.6,341.2z
	"/>
<g class="st7">
	<path class="st2" d="M339.1,364.2h43c2.9,0,5.2,2.3,5.2,5.2v25.9c0,2.9-2.3,5.2-5.2,5.2h-43c-2.9,0-5.2-2.3-5.2-5.2v-25.9
		C333.9,366.5,336.2,364.2,339.1,364.2z"/>
	<path class="st2" d="M365.2,397.2c1.5,0.9,2.8,2.1,3.8,3.6h-18.4c1-1.5,2.3-2.7,3.8-3.6c-4.2-2.8-5.7-8.3-3.3-12.8
		c-1.3-1-2.1-2.1-2.1-3.4c0-3.2,4.9-5.8,10.9-5.8s10.9,2.6,10.9,5.8c0,1.3-0.9,2.6-2.3,3.6C370.9,389,369.4,394.4,365.2,397.2
		L365.2,397.2z"/>
	<path class="st2" d="M339.1,364.2h43c2.9,0,5.2,2.3,5.2,5.2v25.9c0,2.9-2.3,5.2-5.2,5.2h-43c-2.9,0-5.2-2.3-5.2-5.2v-25.9
		C333.9,366.5,336.2,364.2,339.1,364.2z"/>
	<path class="st6" d="M365.2,397.2c1.5,0.9,2.8,2.1,3.8,3.6h-18.4c1-1.5,2.3-2.7,3.8-3.6c-4.2-2.8-5.7-8.3-3.3-12.8
		c-1.3-1-2.1-2.1-2.1-3.4c0-3.2,4.9-5.8,10.9-5.8s10.9,2.6,10.9,5.8c0,1.3-0.9,2.6-2.3,3.6C370.9,389,369.4,394.4,365.2,397.2
		L365.2,397.2z"/>
</g>
<linearGradient id="SVGID_1_" gradientUnits="userSpaceOnUse" x1="611.9347" y1="291.2844" x2="611.9347" y2="390.3278" gradientTransform="matrix(1 0 0 -1 -35.6 722.42)">
	<stop  offset="0" style="stop-color:#808080;stop-opacity:0.25"/>
	<stop  offset="0.54" style="stop-color:#808080;stop-opacity:0.12"/>
	<stop  offset="1" style="stop-color:#808080;stop-opacity:0.1"/>
</linearGradient>
<path class="st8" d="M595.7,420.8c-0.5-0.4-1.1-0.7-1.7-0.9c0,0-0.1,0-0.1,0c-1.2-0.9-2.4-1.9-3.4-2.9c0.2-0.2,0.4-0.4,0.6-0.5
	c-1.3-0.6-2.1-2.1-2.8-3.4c-1.9-3.5-4.4-6.6-7.4-9.3c-0.1-0.3-0.5-0.2-0.7-0.4c-0.1-0.1-0.2-0.4-0.2-0.6c0-0.2,0.1-0.4,0.2-0.6
	c0.1-0.5,0.1-1,0-1.4c-0.1-0.5,0-1,0.3-1.4c0.1-0.1,0.2-0.2,0.3-0.3c0.2-0.3,0.3-0.6,0.2-1c0-0.3-0.1-0.7-0.2-1l3.3-8.9
	c0.8-2.1,1.5-4.2,1.6-6.4c0.1-1.8-0.4-3.6-1.5-5c0.2,0,0.4-0.1,0.6-0.2c-1.3-1.7-1.4-3.9-1.4-6.1c0-1.1-0.1-2.1-0.1-3.2
	c0.4,0.2,0.7,0.3,1.1,0.4c0.1,0,0.2,0.1,0.4,0.1c0.6,0.2,1.2,0.3,1.8,0.4c0.3,0,0.5,0.1,0.8,0.1l0,0l-1.2-2.9
	c-0.2-0.4-0.3-0.9-0.4-1.4l0,0c0,0,0-0.1,0-0.1c0-0.1,0-0.1,0-0.2c0-0.1,0-0.3,0.1-0.4c0-0.1,0-0.1,0.1-0.2c0.1-0.2,0.2-0.3,0.3-0.5
	c0.1-0.1,0.2-0.2,0.3-0.4c0.3-0.4,0.6-0.8,0.8-1.3c0.1-0.2,0.1-0.5,0.1-0.7c0-0.3,0-0.5-0.1-0.8c0-0.2-0.1-0.3-0.1-0.5l0,0
	c0-0.1-0.1-0.2-0.1-0.3c0,0,0-0.1,0-0.1c0-0.1-0.1-0.2-0.1-0.2l0-0.1c0-0.1-0.1-0.2-0.1-0.2l0,0c-0.4-1.1-1-2.1-1.3-3.3
	c-0.1-0.3-0.2-0.6-0.2-0.9l0-0.2c0-0.1,0-0.1,0-0.2l0-0.2c0-0.1,0-0.1,0-0.2c0-0.1,0-0.1,0-0.2c0-0.1,0-0.3,0-0.4c0,0,0-0.1,0-0.1
	c0-0.1,0-0.2,0-0.3v-0.2c0-0.1,0-0.2,0-0.3c0,0,0-0.1,0-0.1c0-0.1,0-0.3,0.1-0.4l0,0l0.1-0.4c0.1-0.4,0.1-0.7,0.1-1.1
	c0-0.1,0-0.1,0-0.2l0-0.2c0,0,0,0,0-0.1c0,0,0-0.1,0-0.1s0,0,0-0.1l0-0.1l0-0.1l0-0.1l0,0c0,0,0-0.1-0.1-0.1l0,0
	c-0.1-0.2-0.2-0.3-0.3-0.5l0,0c-0.7-1-2-1.7-2.6-2.8c-0.4-0.7-0.6-1.4-0.8-2.2c0-0.2-0.1-0.4-0.1-0.5s-0.1-0.3-0.1-0.5
	c0-0.1,0-0.2-0.1-0.3c0,0,0,0,0-0.1l-0.1-0.3c0,0,0,0,0-0.1l-0.1-0.3c0,0,0,0,0,0c0-0.1,0-0.2-0.1-0.3c0,0,0,0,0,0
	c0-0.1-0.1-0.2-0.1-0.3v0c0-0.1-0.1-0.2-0.1-0.3l0,0c0-0.1-0.1-0.2-0.1-0.3l0,0c0-0.1-0.1-0.2-0.1-0.3l0,0c-0.3-0.7-0.7-1.4-1.1-2
	c-1-1.3-2.6-2.3-4.2-2.2c-0.9,0.1-1.7,0.3-2.5,0.6l-2.1,0.8l0.6-0.3c-0.6,0-1.2,0.1-1.8,0.4c-0.6,0.3-1,0.8-1.1,1.4
	c0,0.4,0.1,0.7,0.1,1.1c-0.1,0.6-0.6,1-0.9,1.5c-0.2,0.3-0.2,0.7-0.2,1v0v0.1c0,0,0,0,0,0v0.1c-0.9-0.4-1.8-0.8-2.7-1.2
	c-1.5-0.7-3-1.6-3.9-2.9c-0.3-0.4-0.5-0.9-0.8-1.4c-0.3-0.5-0.7-0.9-1.1-1.3l-2.7-3c-0.2,0.4,0.1,0.9,0.3,1.3
	c0.2,0.4,0.4,0.9,0.5,1.3c0.1,0.1,0.1,0.3,0,0.5c-0.1,0.1-0.2,0.2-0.4,0.3c-0.5,0.3-0.7,1-0.6,1.5c0.2,0.6,0.7,1,1.3,1.1
	c0.2,0,0.4,0.1,0.6,0.1c0.3,0.2,0.5,0.5,0.7,0.8c0.4,0.5,1.1,0.7,1.8,0.9c1,1.2,2.1,2.3,3.1,3.5c1.5,1.8,3.1,3.6,5.1,4.8
	c0.2,0.1,0.4,0.2,0.6,0.3c0,0,0,0.1,0,0.1c-0.1,0.3,0,0.5,0.1,0.8c0.2,0.3,0.5,0.4,0.9,0.4l1.5,0.3c0,0.2,0,0.4-0.1,0.6
	c0,0.1,0,0.2-0.1,0.3l0,0l0,0.2c0,0,0,0,0,0c0,0,0,0.1,0,0.1c0,0,0,0,0,0c0,0,0,0.1,0,0.1v0c0,0,0,0.1,0,0.1
	c0.1,0.6,0.5,1.1,0.8,1.5c0.1,0.1,0.1,0.2,0.2,0.3c-0.3,0.4-0.6,0.9-0.7,1.4c-0.1,0.3-0.1,0.7-0.1,1c-0.2,0.2-0.4,0.4-0.5,0.7
	c-0.1,0.4-0.1,0.7-0.1,1.1v0c0,0.1,0,0.3,0,0.4c0,0.5,0.1,1.1,0.3,1.6l0.1,0.1c-0.3,0.7-0.9,1.2-1.3,1.8c-0.8,1.4-0.7,3.2,0.4,4.4
	c0.3,0.4,0.7,0.7,0.7,1.2c0,0.2,0,0.4-0.1,0.6c0,0.5,0.2,1,0.3,1.5c0.1,0.4,0.1,0.9-0.1,1.2c-0.2,0.3-0.3,0.8-0.3,1.2
	c0.1,0.6-0.2,1.3-0.2,1.9c0,0.3,0,0.6,0,0.8c-0.1,0.3-0.1,0.5-0.2,0.8l0,0.1c-0.6,0.2-1.1,0.5-1.6,0.8c-0.3,0.1-0.5,0.3-0.7,0.6
	c-0.1,0.3-0.1,0.6,0,0.9c0.2,1.1,0.3,2.2,0.5,3.3c0,0-0.1,0-0.1,0c0,0.5,0.1,1.1,0.1,1.6c0,0.4,0.1,0.8,0.3,1.2
	c0.1,0.1,0.2,0.3,0.3,0.4c0.2,0.4,0,0.8-0.2,1.2c-0.2,0.4-0.2,0.9,0.1,1.1c0.2,0.1,0.4,0.2,0.6,0.3c-0.5,1.8,0,3.8,0.4,5.7l0.9,4.3
	c0.1,0.6,0.2,1.2,0.2,1.8c0,0.1,0,0.2,0,0.3c0,0.8,0.2,1.7,0.4,2.5c0.5,1.7,0,3.7,0.2,5.5c0.1,0.9,0.3,1.7,0.5,2.6
	c1.1,4.3,2,8.5,2.4,12.8c0.4,0.5,0.9,0.9,1.5,1.1c0,0.5,0,1.2,0,1.5c0,0.3,0,0.5-0.1,0.8c-0.2,0.5-0.7,0.8-1.2,1
	c-0.2,0.1-0.3,0.1-0.5,0.1l0.2-0.2c-1-0.2-2.1,0-2.9,0.5c-0.3,0.1-0.5,0.4-0.6,0.7c0,0.3,0,0.6,0.2,0.8c0.5,0.7,1.2,1.2,2.1,1.5
	c0.8,0.2,1.7,0.3,2.5,0.4l1.6,0.1c-0.1,0.2-0.1,0.4,0.1,0.6c0.2,0.1,0.4,0.2,0.6,0.2c0.6,0.1,1.3,0.1,1.9,0c0.2,0,0.3-0.1,0.4-0.2
	c0.1-0.1,0.1-0.3,0-0.4c0,0,0,0,0,0c0.2,0,0.4-0.1,0.4-0.3c0.1-0.2,0.1-0.4,0.1-0.6c0-0.7-0.1-1.8-0.5-2.5c-0.1-0.2-0.4-0.4-0.7-0.3
	c-0.2-1.3-0.4-2.6-0.4-4c0.4-0.1,0.8-0.3,1.1-0.5c-1.1-1.8-1.1-4-0.8-6.1c0.1-0.6,0.2-1.3,0.3-2c0.1-1.3-0.1-2.8-0.9-3.9
	c1.3,0.8,2.5,1.9,3.5,3.1c1.5,2,2.5,4.4,4.4,6.1l0.8-0.7c0.4,0.7,0.8,1.4,1.1,2.1c0.3,0.5,0.5,1.1,0.7,1.6c0.2,0.9,0.2,1.8,0.1,2.6
	c-0.1,0.5-0.1,0.9-0.2,1.4c0,0.2-0.1,0.4-0.1,0.6c0-0.1,0-0.1,0-0.2c-0.1-0.2-0.4-0.1-0.6,0c-0.3,0.2-0.6,0.5-0.8,0.9
	c-0.1,0.2-0.2,0.4-0.1,0.6c0.1,0.2,0.2,0.4,0.4,0.6c0.8,0.5,1.9,0.1,2.8-0.2c0.2-0.1,0.5-0.2,0.7-0.3c0.4-0.3,0.7-0.9,1.1-1.2
	c0.2-0.1,0.5-0.3,0.7-0.4c0.4-0.4,0.5-1,0.7-1.5c0.5-0.8,1.6-1,2.1-1.9C597.1,422.6,596.5,421.4,595.7,420.8z"/>
<path class="st9" d="M576.5,424.7c0,0.3,0,0.5-0.1,0.8c-0.2,0.5-0.7,0.8-1.2,1c-0.5,0.2-1,0.2-1.5,0.4c-0.2,0-0.4,0.2-0.6,0.3
	c-0.4,0.4-0.2,1.2,0.3,1.6c0.5,0.3,1.2,0.3,1.8,0.3c1.3-0.1,2.6-0.3,3.9-0.6c0.5-0.1,1-0.3,1.1-0.8c0-0.1,0-0.3,0-0.4
	c-0.3-1.6-0.5-3.2-0.5-4.8c0-0.1-2.6-0.2-2.8,0C576.3,422.7,576.5,424.2,576.5,424.7z"/>
<path class="st9" d="M588,419c0.4,0.7,0.8,1.4,1.2,2.2c0.7,1.3,1,2.8,0.7,4.2c-0.1,0.5-0.1,0.9-0.2,1.4c-0.1,0.4-0.2,1-0.6,1.2
	c0.3,0.2,0.8,0.2,1.1,0.1c0.4-0.1,0.7-0.4,1-0.6c1.9-1.6,3.4-3.9,3.4-6.3c0-0.2,0-0.4-0.1-0.6c-0.1-0.1-0.2-0.2-0.3-0.3
	c-1.4-1-2.7-2.1-3.9-3.3c-0.1-0.2-0.3-0.2-0.5-0.1c0,0,0,0-0.1,0c-0.7,0.4-2,0.9-2.3,1.7C587.7,418.7,587.9,418.8,588,419z"/>
<path class="st1" d="M579.1,427.3c-1.6,0.7-3.4,0.9-5.1,1.1c-0.2,0.1-0.4,0-0.6-0.1c-0.1-0.1-0.1-0.4,0-0.5c0.1-0.2,0.2-0.3,0.4-0.4
	l1.2-1c-1-0.2-2.1,0-2.9,0.5c-0.3,0.1-0.5,0.4-0.6,0.7c0,0.3,0,0.6,0.2,0.8c0.5,0.7,1.2,1.2,2.1,1.4c0.8,0.2,1.7,0.3,2.5,0.3
	l1.6,0.1c-0.1,0.2-0.1,0.4,0.1,0.6c0.2,0.1,0.4,0.2,0.6,0.2c0.6,0.1,1.3,0.1,1.9,0c0.2,0,0.3-0.1,0.4-0.2c0.1-0.1,0.1-0.3,0-0.4
	c0,0,0,0,0,0c0.2,0,0.4-0.1,0.4-0.3c0.1-0.2,0.1-0.4,0.1-0.6c0-0.7-0.1-1.8-0.5-2.4S579.7,427.1,579.1,427.3z"/>
<path class="st1" d="M595.7,420.9c-0.5-0.4-1.1-0.7-1.7-0.9c-0.1-0.1-0.2-0.1-0.3,0c0,0,0,0,0,0.1c-1.1,1.4-1.9,3-2.4,4.7
	c-0.3,1-0.6,2-1.2,2.8c-0.1,0.1-0.2,0.2-0.3,0.1s-0.1-0.4-0.2-0.5c-0.1-0.2-0.4-0.1-0.6,0c-0.3,0.2-0.6,0.5-0.8,0.9
	c-0.1,0.2-0.2,0.4-0.1,0.6c0.1,0.2,0.2,0.4,0.4,0.5c0.8,0.5,1.9,0.1,2.8-0.2c0.2-0.1,0.5-0.2,0.7-0.3c0.4-0.3,0.7-0.8,1.1-1.1
	c0.2-0.1,0.5-0.3,0.7-0.4c0.4-0.4,0.5-1,0.7-1.5c0.5-0.8,1.6-1,2-1.9C597,422.7,596.4,421.5,595.7,420.9z"/>
<path class="st1" d="M583.2,376.4c1.8,1.3,2.5,3.7,2.4,5.8c-0.1,2.2-0.9,4.3-1.6,6.3c-1.1,2.9-2.2,5.9-3.3,8.8
	c0.1,0.3,0.2,0.7,0.2,1c0.1,0.3,0,0.7-0.2,1c-0.1,0.1-0.2,0.2-0.3,0.3c-0.3,0.4-0.4,0.9-0.3,1.4c0.1,0.5,0.1,1,0,1.4
	c-0.1,0.2-0.1,0.4-0.2,0.6c-0.1,0.2,0,0.4,0.2,0.6c0.2,0.2,0.7,0.1,0.7,0.4c3,2.6,5.5,5.7,7.4,9.1c0.7,1.3,1.5,2.7,2.8,3.4
	c-1.3,1-2.6,2.1-3.8,3.3c-1.9-1.6-2.8-4-4.4-6c-1-1.2-2.1-2.3-3.5-3.1c0.7,1.1,0.9,2.5,0.9,3.8c-0.1,0.7-0.2,1.3-0.3,1.9
	c-0.3,2-0.3,4.2,0.8,6c-1.2,0.6-2.5,1.1-3.8,0.9c-0.8-0.1-1.6-0.5-2.1-1.2c-0.4-4.3-1.3-8.5-2.4-12.7c-0.2-0.8-0.4-1.7-0.5-2.5
	c-0.2-1.8,0.3-3.8-0.2-5.4c-0.2-0.8-0.4-1.6-0.4-2.5c0-0.1,0-0.2,0-0.3c0-0.6-0.1-1.2-0.2-1.8l-1-4.2c-0.4-1.8-0.8-3.8-0.4-5.6
	c-0.2-0.1-0.4-0.2-0.6-0.3c-0.4-0.2-0.3-0.7-0.1-1.1c0.2-0.4,0.4-0.8,0.2-1.2c-0.1-0.2-0.2-0.3-0.3-0.4c-0.2-0.4-0.3-0.8-0.3-1.2
	l-0.1-1.6c0.7,0.3,1.2,0.8,1.6,1.4c-0.9-1.4-0.4-3.3,0.2-4.8c0.2-0.9,1.1-1.6,2-1.6C576,375.8,580.3,374.2,583.2,376.4z"/>
<path class="st3" d="M581.6,385.6c0,0-1.8,1.2-1.8,2s-0.4,8.8-0.4,8.8v5.6c0,0,0.3,2.9,0,3.7c-0.3,0.7,0,4.1,0,4.5
	c0,0.4,0.4-4.5,0.4-4.5v-5.3l0.4-12L581.6,385.6z"/>
<path class="st9" d="M571.8,345l-1-0.4c-2.1-0.8-4.2-1.7-6.2-2.7c-1.5-0.7-3-1.6-3.9-2.9c-0.3-0.4-0.5-0.9-0.8-1.4
	c-0.3-0.5-0.7-0.9-1.1-1.3l-2.7-2.9c-0.2,0.4,0.1,0.9,0.3,1.2c0.2,0.4,0.4,0.8,0.5,1.3c0.1,0.1,0,0.3,0,0.4
	c-0.1,0.1-0.2,0.2-0.4,0.3c-0.5,0.3-0.7,0.9-0.6,1.5c0.2,0.6,0.7,1,1.3,1.1c0.2,0,0.4,0.1,0.6,0.1c0.3,0.2,0.5,0.5,0.7,0.8
	c0.4,0.5,1.1,0.7,1.8,0.9c1,1.2,2.1,2.3,3.1,3.4c1.5,1.7,3.1,3.5,5.1,4.7c0.7,0.4,1.5,0.7,2.3,0.9
	C570.9,348.4,571.3,346.7,571.8,345z"/>
<path class="st10" d="M571.8,345l-1-0.4c-2.1-0.8-4.2-1.7-6.2-2.7c-1.5-0.7-3-1.6-3.9-2.9c-0.3-0.4-0.5-0.9-0.8-1.4
	c-0.3-0.5-0.7-0.9-1.1-1.3l-2.7-2.9c-0.2,0.4,0.1,0.9,0.3,1.2c0.2,0.4,0.4,0.8,0.5,1.3c0.1,0.1,0,0.3,0,0.4
	c-0.1,0.1-0.2,0.2-0.4,0.3c-0.5,0.3-0.7,0.9-0.6,1.5c0.2,0.6,0.7,1,1.3,1.1c0.2,0,0.4,0.1,0.6,0.1c0.3,0.2,0.5,0.5,0.7,0.8
	c0.4,0.5,1.1,0.7,1.8,0.9c1,1.2,2.1,2.3,3.1,3.4c1.5,1.7,3.1,3.5,5.1,4.7c0.7,0.4,1.5,0.7,2.3,0.9
	C570.9,348.4,571.3,346.7,571.8,345z"/>
<path class="st11" d="M569.9,350.8c-0.3,0-0.7-0.2-0.9-0.4c-0.1-0.2-0.1-0.5-0.1-0.8c0.2-1.7,0.5-3.3,1.1-4.9
	c0.5,0.9,1.5,1.5,2.4,1.9c0.8,0.5,1.7,0.9,2.6,1.2c-0.2-0.1-0.8,3.4-1.1,3.6c-0.4,0.3-1.3-0.1-1.8-0.2L569.9,350.8z"/>
<circle class="st9" cx="572.3" cy="345.1" r="4.7"/>
<path class="st12" d="M571.4,349c0,0,3.1,2.6,1.8,4.4s-2,2.9-0.3,3.1c1.8,0.1,7.6-2.9,7.6-2.9s-5.4-4.4-4.5-7S571.4,349,571.4,349z"
	/>
<path class="st11" d="M574.3,353.1c-1.3,0.3-2.4,1.4-2.7,2.7c-0.3,1.6,0.4,3.3-0.3,4.8c-0.3,0.7-0.9,1.2-1.3,1.8
	c-0.8,1.4-0.7,3.1,0.4,4.4c0.3,0.3,0.7,0.7,0.7,1.1c0,0.2,0,0.4-0.1,0.6c0,0.5,0.2,1,0.3,1.4c0.1,0.4,0.1,0.8-0.1,1.2
	c-0.2,0.3-0.3,0.7-0.3,1.2c0.1,0.6-0.2,1.2-0.2,1.9c0,0.3,0,0.5,0,0.8c0,0.3-0.1,0.5-0.2,0.8l-0.4,1.4c2.1,0.9,4.4,1.3,6.7,1.2
	c2.1,0,4.1-0.5,6.1-0.9c0.6-0.1,1.2-0.3,1.8-0.4c-1.3-1.7-1.4-3.9-1.4-6c-0.1-3.5-0.3-7-0.8-10.4c0.6-1.2,0.9-2.5,1.1-3.8
	c0.1-0.5,0.2-1.1,0.1-1.6c-0.1-1.1-0.6-2.2-1.1-3.2c-0.5-0.9-1-1.9-2-2.3c-0.5-0.2-1.1-0.2-1.5,0.2c-0.8,0.6-0.5,1.6-0.7,2.5
	c-0.3,1.1-1.3,1.9-2.4,2.2c-0.8,0.2-1.7,0.3-2.5,0.2c-0.2,0-0.4-0.2-0.4-0.5c0-0.1,0-0.2,0.1-0.3C573.7,353.9,574,353.5,574.3,353.1
	z"/>
<path class="st9" d="M578,371.2c-1.7,1.4-3.5,2.8-5.5,3.9c-1.2,0.6-2.4,1-3.6,1.7c-0.3,0.1-0.5,0.3-0.7,0.6c-0.1,0.3-0.1,0.6,0,0.8
	l0.5,3.5c0.1,0.9,1,1.6,1.8,2.1c-0.1-0.3-0.1-0.6,0-0.8c0.1-0.1,0.1-0.2,0.2-0.3c0.3-0.5,0.4-1.1,0.2-1.6c-0.1-0.6-0.2-1.1-0.2-1.7
	c0-0.2,0.1-0.4,0.2-0.5c2.5-1.2,5.2-2.1,7.7-3.3c0.7-0.3,1.3-0.6,1.9-1.1c0.6-0.4,1-1.1,1.1-1.8c0-0.1,0-0.2,0-0.3
	c-0.1-0.1-0.1-0.1-0.2-0.1C580.3,372,579.1,371.6,578,371.2z"/>
<path class="st3" d="M573.1,356.5c-0.9,0.1-1.8,0.6-2.1,1.4c-0.1,0.4-0.1,0.7-0.1,1.1c0,0.5,0.1,1,0.3,1.5c0.1,0.3,0.3,0.5,0.5,0.8
	c2.1,2.6,3.1,6,5.1,8.6c0.2,0.2,0.5,0.5,0.4,0.8c0,0.1-0.1,0.1-0.1,0.2c0,0.1,0,0.3,0.1,0.4c0.1,0.1,0.2,0.2,0.2,0.4
	c0,0.1-0.1,0.3-0.2,0.3c0.2,0.7,1,1.2,1.7,1.5c1.2,0.6,2.5,1,3.7,0.9c0.2-1,0.6-2.1,0.4-3.1c-0.1-0.8-0.4-1.5-0.7-2.2l-0.9-1.9
	c-0.7-1.6-1.5-3.3-2.5-4.7c-0.4-0.5-0.7-1-0.9-1.5c-0.3-0.7-1-1.2-1.4-1.8c-0.7-0.9-1.3-1.8-2.2-2.4
	C574.1,356.7,573.6,356.4,573.1,356.5z"/>
<path class="st11" d="M573.1,356.1c-0.9,0.1-1.8,0.6-2.1,1.4c-0.1,0.4-0.1,0.7-0.1,1.1c0,0.5,0.1,1,0.3,1.5c0.1,0.3,0.3,0.5,0.5,0.8
	c2.1,2.6,3.1,6,5.1,8.6c0.2,0.2,0.5,0.5,0.4,0.8c0,0.1-0.1,0.1-0.1,0.2c0,0.1,0,0.3,0.1,0.4c0.1,0.1,0.2,0.2,0.2,0.4
	c0,0.1-0.1,0.3-0.2,0.3c0.2,0.7,1,1.2,1.7,1.5c1.2,0.6,2.5,1,3.7,0.9c0.2-1,0.6-2.1,0.4-3.1c-0.1-0.8-0.4-1.5-0.7-2.2l-0.9-1.9
	c-0.7-1.6-1.5-3.3-2.5-4.7c-0.4-0.5-0.7-1-0.9-1.5c-0.3-0.7-1-1.2-1.4-1.8c-0.7-0.9-1.3-1.8-2.2-2.4
	C574.1,356.3,573.6,356,573.1,356.1z"/>
<path class="st1" d="M571.2,337.4c-0.6,0-1.2,0.1-1.8,0.4c-0.6,0.2-1,0.8-1.1,1.4c0,0.4,0.1,0.7,0.1,1.1c-0.1,0.6-0.6,1-0.9,1.5
	c-0.5,0.9-0.1,2.1,0.5,2.9c0.6,0.8,1.5,1.4,2.2,2.2c1.1,1.3,1.5,3,1.2,4.7c-0.1,0.3-0.1,0.6-0.1,1c0.1,0.6,0.5,1.1,0.8,1.5
	c1.9,2.2,3.7,4.6,5.3,7c0.5,0.7,0.9,1.5,1.3,2.2c0.4,0.8,0.7,1.7,1.2,2.4c0.5,0.6,1.1,1.1,1.8,1.5c1.7,1,3.6,1.7,5.6,1.8l-1.1-2.8
	c-0.2-0.5-0.4-1-0.3-1.6c0.1-1,1.2-1.7,1.5-2.7c0.2-0.6,0.2-1.3-0.1-2c-0.4-1.4-1.2-2.7-1.7-4.2c-0.4-1.3-0.5-2.6-0.2-3.9
	c0.1-0.6,0.2-1.1,0.2-1.7c-0.2-1.7-2.3-2.6-3.2-4.1c-0.6-0.9-0.7-2.1-0.9-3.2c-0.3-1.6-0.8-3.2-1.8-4.5c-1-1.3-2.6-2.2-4.2-2.1
	c-0.9,0.1-1.7,0.3-2.5,0.6l-2.1,0.8"/>
<g class="st13">
	<path d="M580.8,341c0.2,1,0.3,2,0.8,2.9c-0.1-0.3-0.1-0.7-0.2-1c-0.2-0.9-0.4-1.7-0.7-2.6C580.7,340.6,580.7,340.8,580.8,341z"/>
	<path d="M584.7,350.1c-0.2,1.3-0.1,2.6,0.2,3.9c0.1,0.3,0.2,0.7,0.4,1c-0.2-1-0.2-2,0-3c0.1-0.6,0.2-1.1,0.2-1.7
		c-0.1-0.5-0.3-0.9-0.6-1.3C584.9,349.3,584.8,349.7,584.7,350.1z"/>
	<path d="M587.2,360c-0.1-0.4-0.3-0.8-0.4-1.2c0.1,0.4,0,0.9-0.1,1.3c-0.3,1-1.4,1.6-1.5,2.7c0,0.5,0.1,1.1,0.3,1.6l0.2,0.6
		c0-0.1,0-0.2,0-0.2c0.1-1,1.2-1.7,1.5-2.7C587.4,361.3,587.4,360.6,587.2,360z"/>
	<path d="M581.1,365.3c-0.7-0.4-1.3-0.9-1.8-1.5c-0.5-0.7-0.8-1.6-1.2-2.4c-0.4-0.8-0.8-1.5-1.3-2.2c-1.6-2.5-3.4-4.8-5.3-7
		l-0.2-0.2c0,0.2-0.1,0.4-0.1,0.6c0.1,0.6,0.5,1.1,0.8,1.5c1.9,2.2,3.7,4.6,5.3,7c0.5,0.7,0.9,1.5,1.3,2.2c0.4,0.8,0.7,1.7,1.2,2.4
		c0.5,0.6,1.1,1.1,1.8,1.5c1.7,1,3.6,1.7,5.6,1.8l-0.8-1.9C584.6,367,582.7,366.4,581.1,365.3z"/>
	<path d="M569.6,345.1c-0.7-0.8-1.5-1.4-2.2-2.2c-0.1-0.1-0.1-0.2-0.2-0.2c0,0.8,0.3,1.5,0.8,2.1c0.6,0.8,1.5,1.4,2.2,2.2
		c0.3,0.3,0.5,0.7,0.7,1C570.7,346.9,570.3,345.9,569.6,345.1z"/>
</g>
<path class="st14" d="M565.4,306l-1.6-1.6c-0.3-0.3-0.8-0.3-1.2,0c0,0,0,0,0,0l-9.7,9.7l-4.1-4.2c-0.3-0.3-0.8-0.3-1.2,0
	c0,0,0,0,0,0l-1.6,1.5c-0.3,0.3-0.3,0.8,0,1.2l6.3,6.3c0.3,0.3,0.8,0.3,1.2,0l11.9-11.8C565.7,306.8,565.7,306.3,565.4,306
	C565.4,306,565.4,305.9,565.4,306z"/>
<path class="st14" d="M475.2,363.6l-1.6-1.6c-0.3-0.3-0.8-0.3-1.2,0c0,0,0,0,0,0l-9.7,9.7l-4.1-4.2c-0.3-0.3-0.8-0.3-1.2,0
	c0,0,0,0,0,0l-1.6,1.5c-0.3,0.3-0.3,0.8,0,1.2l6.3,6.3c0.3,0.3,0.8,0.3,1.2,0l11.9-11.8C475.5,364.5,475.5,364,475.2,363.6z"/>
</svg>
