<?xml version="1.0" encoding="utf-8"?>
<!-- Generator: Adobe Illustrator 19.0.0, SVG Export Plug-In . SVG Version: 6.00 Build 0)  -->
<svg version="1.1" id="ffd51b1e-d9cd-4f1b-a84c-ada8a80364ab"
	 xmlns="http://www.w3.org/2000/svg" xmlns:xlink="http://www.w3.org/1999/xlink" x="0px" y="0px" viewBox="-119 -645 373 645"
	 style="enable-background:new -119 -645 373 645;" xml:space="preserve">
<style type="text/css">
	.st0{opacity:0.2;}
	.st1{fill:#3F3D56;}
	.st2{fill:#700282;}
	.st3{opacity:0.1;enable-background:new    ;}
	.st4{opacity:0.1;fill:#700282;enable-background:new    ;}
	.st5{opacity:0.1;fill:none;stroke:#700282;stroke-width:3;stroke-miterlimit:10;enable-background:new    ;}
	.st6{fill:#FFFFFF;}
	.st7{opacity:0.6;}
	.st8{fill:url(#SVGID_1_);}
	.st9{fill:#A1616A;}
	.st10{opacity:0.15;enable-background:new    ;}
	.st11{fill:#FF6F61;}
	.st12{fill:#FBBEBE;}
	.st13{opacity:0.1;}
	.st14{fill:#3ACC6C;}
</style>
<title>followers</title>
<g class="st0">
	<path class="st1" d="M178.2-248.7c-2.3,1.4-4.7,2.7-7.1,4.1c-0.4,0.2-0.7,0.4-1.1,0.6c-1.8,1-3.7,1.9-5.5,2.8c0-0.1,0-0.3,0.1-0.4
		c0.2-1.5,0.7-3,1.4-4.4c0.3-0.7,0.7-1.3,1.2-1.8c1.8-2.3,4.4-3.6,7-3.2C175.7-250.8,177.1-249.9,178.2-248.7z"/>
	<path class="st1" d="M182.4-252.2c0,0.3-0.1,0.7-0.2,1c-1.3,0.9-2.7,1.7-4.1,2.5c-2.3,1.4-4.7,2.7-7.1,4.1
		c-0.4,0.2-0.7,0.4-1.1,0.6c-0.5-0.3-0.9-0.7-1.2-1.1c-0.7-0.8-1.2-1.7-1.6-2.7c-1.7-4.3-1-9.2,1.8-12.9c1.8-2.3,4.4-3.6,7-3.2
		c2.6,0.4,4.7,2.3,5.8,5C182.5-256.8,182.8-254.4,182.4-252.2z"/>
	
		<ellipse transform="matrix(-0.1423 0.9898 -0.9898 -0.1423 -62.1563 -478.6126)" class="st1" cx="176.3" cy="-266.2" rx="10.6" ry="8.1"/>
	<path class="st2" d="M230.7-372.7c-0.8,5.6-2.8,10.9-5.8,15.6l-22.8-3.4l20.6,6.5c-1.1,1.4-2.3,2.7-3.6,4c9,15.6,6.2,35.2-6.8,47.6
		c3.7,6.4,5.5,13.7,5.2,21c-9.7,11.3-21.5,21.4-35.1,30.1c-1.3,0.9-2.7,1.7-4.1,2.5c-2.3,1.4-4.7,2.7-7.1,4.1
		c-0.8-0.2-1.6-0.3-2.4-0.5c-1-0.2-1.9-0.5-2.8-0.8c-20.4-6.9-31.2-29-24.3-49.4c2-6,5.5-11.3,10-15.7c-0.4-0.7-0.8-1.4-1.1-2.1l0,0
		c-0.1-0.2-0.2-0.4-0.3-0.6c-2.8-5.9-4.1-12.4-3.7-19v-0.7c0-0.4,0.1-0.7,0.1-1.1c0.1-0.5,0.1-1,0.2-1.6l0,0c0.6-4.2,1.9-8.2,3.8-12
		l27.8,14l-25.4-18.2c1.6-2.3,3.4-4.5,5.4-6.4c-10.8-18.6-4.4-42.4,14.2-53.2c18.6-10.8,42.4-4.4,53.2,14.2c0.9,1.6,1.7,3.3,2.4,5
		L197-376l32.9-11.5C231.1-382.5,231.4-377.5,230.7-372.7z"/>
	<path class="st3" d="M217.3-281.3c-9.7,11.3-21.5,21.4-35.1,30.1c-1.3,0.9-2.7,1.7-4.1,2.5c-2.3,1.4-4.7,2.7-7.1,4.1
		c-0.8-0.2-1.6-0.3-2.4-0.5c-1-0.2-1.9-0.5-2.8-0.8c-20.3-6.9-31.2-29-24.3-49.4c2-5.9,5.4-11.3,10-15.6c-0.4-0.7-0.8-1.4-1.1-2.1
		l0,0c-0.1-0.2-0.2-0.4-0.3-0.6c-2.8-5.9-4.1-12.4-3.7-19v-0.7c0-0.4,0.1-0.7,0.1-1.1c0.1-0.5,0.1-1,0.2-1.6l0,0
		c0.2-0.8,3.4-0.1,8.2,1.5l0,0l1,0.4c1.1,0.4,2.2,0.8,3.4,1.3l0,0c2.6,1,5.5,2.2,8.5,3.5l0,0l0.2,0.1l0,0l0.4,0.2l0,0
		c20.5,8.9,47.4,23.1,43.5,26.8C215.8-296,217.6-288.8,217.3-281.3z"/>
</g>
<g class="st0">
	<path class="st1" d="M-7.9-231.6c-1.3-0.4-2.6-0.9-3.8-1.4c-3-1.1-5.9-2.2-8.7-3.5c0.6-0.5,1.2-0.8,1.9-1.1c2.6-0.9,5.4,0,7.7,2
		C-9.6-234.3-8.6-233.1-7.9-231.6z"/>
	<path class="st1" d="M-10.9-235.4c-0.2,0.9-0.5,1.7-0.9,2.6c-3-1.1-5.9-2.2-8.7-3.5c-2.5-1-4.9-2.1-7.4-3.3
		c-0.1-0.7-0.2-1.5-0.1-2.2c0-0.8,0.1-1.5,0.2-2.3c0.6-3,2.4-5.4,4.9-6.3c2.6-0.9,5.4,0,7.7,2c0.6,0.5,1.1,1,1.5,1.6
		c1,1.3,1.8,2.8,2.3,4.3C-10.6-240.2-10.4-237.8-10.9-235.4z"/>
	
		<ellipse transform="matrix(-0.9535 0.3014 -0.3014 -0.9535 -122.5309 -486.7489)" class="st1" cx="-23.7" cy="-252.8" rx="8.4" ry="11.2"/>
	
		<ellipse transform="matrix(-0.9535 0.3014 -0.3014 -0.9535 -134.8659 -510.9117)" class="st1" cx="-28" cy="-265.9" rx="8.4" ry="11.2"/>
	<path class="st2" d="M-13.7-246.8c-0.9,0.5-1.7,1-2.6,1.4c-1.4,0.7-2.9,1.3-4.5,1.8c-1.4,0.5-2.8,0.9-4.2,1.2c-1,0.2-2,0.4-3,0.5
		c-1.2,0.2-2.5,0.3-3.7,0.3c-14.8-7.4-28.1-16.4-39.5-26.7c-0.2-0.4-0.3-0.9-0.5-1.3c-2.9-8.7-2.9-18.2,0.1-26.9
		c-7.6-5.1-13.3-12.6-16.1-21.3c-1.4-4.3-2.1-8.7-2.1-13.2h32.2l-31.8-5.1c0.4-2.9,1-5.8,2-8.6c-7.6-5.1-13.3-12.6-16.1-21.3
		c-7.1-21.5,4.1-44.8,25.1-52c14-4.8,28.9-1.2,39.3,8.1L-60-379.3l24.9-26.5c3.4,4,5.9,8.6,7.6,13.6c1.9,5.6,2.5,11.6,1.9,17.5
		l-22.6,7.6l22-3.7c-0.4,1.9-0.9,3.7-1.5,5.5c7.6,5.1,13.3,12.6,16.1,21.3c1.4,4.1,2.1,8.5,2.1,12.8l0,0c0,0.3,0,0.7,0,1
		c0,0.1,0,0.3,0,0.4c-0.1,4.3-0.9,8.5-2.3,12.6c3.1,2.1,5.9,4.6,8.3,7.4c0.1,0.1,0.1,0.1,0.2,0.2c3.4,4,6,8.7,7.6,13.7
		C10.6-276.7,2.6-256.3-13.7-246.8z"/>
	<path class="st3" d="M-13.7-246.8c-0.9,0.5-1.7,1-2.6,1.4c-1.4,0.7-2.9,1.3-4.5,1.8c-1.4,0.5-2.8,0.9-4.2,1.2c-1,0.2-2,0.4-3,0.5
		c-1.2,0.2-2.5,0.3-3.7,0.3c-14.8-7.4-28.1-16.4-39.5-26.7c-0.2-0.4-0.3-0.9-0.5-1.3c-2.9-8.7-2.9-18.2,0.1-26.9
		c-7.6-5.1-13.3-12.6-16.1-21.3c-1.1-3.3,44.8-6,65.8-3.4l0.5,0.1c6.4,0.8,10.3,2.1,9.6,4.1c3.1,2.1,5.9,4.6,8.3,7.4
		c0.1,0.1,0.1,0.1,0.2,0.2c3.4,4,6,8.7,7.6,13.7C10.6-276.7,2.6-256.3-13.7-246.8z"/>
</g>
<path class="st4" d="M82.1-406.6c0.2-0.2,0.3-0.5,0.3-0.8c0-1.8-3.6-3.2-8-3.2s-8,1.4-8,3.2c0,0.3,0.1,0.7,0.3,0.9
	c-4.9,0.5-8.3,1.6-8.3,2.8c0,1.8,7.4,3.2,16.4,3.2c9.1,0,16.4-1.4,16.4-3.2C91.3-405,87.5-406.1,82.1-406.6z"/>
<path class="st4" d="M138.9-426.6c0.3-0.4,0.4-0.8,0.4-1.3c0-2.8-5.7-5.1-12.7-5.1s-12.7,2.3-12.7,5.1c0,0.5,0.2,1,0.5,1.4
	c-7.8,0.9-13.1,2.5-13.1,4.4c0,2.8,11.7,5.1,26.1,5.1c14.4,0,26.1-2.3,26.1-5.1C153.4-424,147.5-425.8,138.9-426.6z"/>
<path class="st4" d="M36.7-426.6c0.3-0.4,0.4-0.8,0.4-1.3c0-2.8-5.7-5.1-12.7-5.1s-12.7,2.3-12.7,5.1c0,0.5,0.2,1,0.5,1.4
	c-7.8,0.9-13.1,2.5-13.1,4.4c0,2.8,11.7,5.1,26.1,5.1s26.1-2.3,26.1-5.1C51.2-424,45.3-425.8,36.7-426.6z"/>
<path class="st5" d="M4.4-400.1c0.7-0.4,1.7,0,2.2,0.6c0.5,0.7,0.6,1.5,0.8,2.3c0.3,1.8,0.5,3.9-0.8,5.3c2-6.1,7.8-10.7,14.1-11.4"
	/>
<path class="st5" d="M759.4-587.5c1.5-0.9,3.5,0,4.5,1.3c0.9,1.5,1.5,3.2,1.6,4.9c0.6,3.8,1,8.2-1.6,11c4.5-12.9,16-22.2,29.5-23.8"
	/>
<path class="st5" d="M1024.4-614.5c1.5-0.9,3.5,0,4.5,1.3c0.9,1.5,1.5,3.2,1.6,4.9c0.6,3.8,1,8.2-1.6,11c4.5-12.9,16-22.2,29.6-23.8
	"/>
<ellipse class="st4" cx="72.8" cy="-224.7" rx="167.9" ry="13.7"/>
<path class="st6" d="M-57.8-381.3h257.5c3.1,0,5.7,2.5,5.7,5.7v142.7c0,3.1-2.5,5.7-5.7,5.7H-57.8c-3.1,0-5.7-2.5-5.7-5.7v-142.7
	C-63.5-378.8-60.9-381.3-57.8-381.3z"/>
<path class="st1" d="M205.4-375.7v8.1H-63.5v-8.1c0-3.1,2.5-5.7,5.7-5.7l0,0h257.5C202.8-381.3,205.4-378.8,205.4-375.7L205.4-375.7
	z"/>
<g class="st7">
	<path class="st2" d="M-38.5-345.3h43c2.9,0,5.2,2.3,5.2,5.2v25.9c0,2.9-2.3,5.2-5.2,5.2h-43c-2.9,0-5.2-2.3-5.2-5.2V-340
		C-43.7-343-41.4-345.3-38.5-345.3z"/>
	<path class="st6" d="M-22.2-314.2c-4-2.6-5.5-7.6-3.7-12c-3.4-4.7-2.3-11.2,2.4-14.6c4.7-3.4,11.2-2.3,14.6,2.4
		c2.3,3.3,2.6,7.6,0.7,11.1c2.5,4.5,1.1,10.2-3.2,13.1c2.1,1.3,3.8,3.2,4.9,5.4H-27C-26-311-24.3-312.8-22.2-314.2z"/>
</g>
<path class="st2" d="M47.4-285.8h43c2.9,0,5.2,2.3,5.2,5.2v25.9c0,2.9-2.3,5.2-5.2,5.2h-43c-2.9,0-5.2-2.3-5.2-5.2v-25.9
	C42.2-283.5,44.6-285.8,47.4-285.8z"/>
<path class="st6" d="M74.1-252.7c1.5,0.9,2.8,2.1,3.8,3.6H59.5c1-1.5,2.3-2.7,3.8-3.6c-4-2.6-5.5-7.6-3.7-12
	c-3.4-4.7-2.3-11.2,2.4-14.6c4.7-3.4,11.2-2.3,14.6,2.4c2.3,3.3,2.6,7.6,0.7,11.1C79.9-261.3,78.5-255.7,74.1-252.7L74.1-252.7z"/>
<g class="st7">
	<path class="st2" d="M47.4-345.3h43c2.9,0,5.2,2.3,5.2,5.2v25.9c0,2.9-2.3,5.2-5.2,5.2h-43c-2.9,0-5.2-2.3-5.2-5.2V-340
		C42.2-343,44.6-345.3,47.4-345.3z"/>
	<path class="st6" d="M79.3-324.3c0.8,4-0.9,8-4.3,10.2c2.1,1.3,3.8,3.2,4.9,5.4H59.4c1.1-2.3,2.8-4.1,4.9-5.4
		c-3.6-2.4-5.3-6.8-4.1-11c-0.1,0-0.3,0-0.4,0c-2.2,0-4-1.8-3.9-4c0-2.1,1.6-3.8,3.6-3.9c-0.2-0.5-0.3-1-0.3-1.5c0-2.2,1.8-4,4-4
		c1.7,0,3.1,1,3.7,2.6c1.3-1.2,3.2-1.4,4.7-0.5c1.9-1.1,4.3-0.5,5.5,1.4c0.1,0.1,0.2,0.3,0.2,0.4c2.2,0,3.9,1.7,4,3.9
		c1.4,1.7,1.2,4.2-0.5,5.6C80.4-324.8,79.9-324.5,79.3-324.3L79.3-324.3z"/>
</g>
<g class="st7">
	<path class="st2" d="M137.3-285.8h43c2.9,0,5.2,2.3,5.2,5.2v25.9c0,2.9-2.3,5.2-5.2,5.2h-43c-2.9,0-5.2-2.3-5.2-5.2v-25.9
		C132.2-283.5,134.5-285.8,137.3-285.8z"/>
	<path class="st6" d="M169.2-263c0.8,4-0.9,8-4.3,10.2c1.5,0.9,2.8,2.1,3.8,3.6h-18.3c1-1.5,2.3-2.7,3.8-3.6
		c-3.6-2.4-5.3-6.8-4.1-11c-0.1,0-0.3,0-0.4,0c-2.2,0-4-1.8-3.9-4c0-2.1,1.6-3.8,3.6-3.9c-0.2-0.5-0.3-1-0.3-1.5c0-2.2,1.8-4,4-4
		c1.7,0,3.1,1,3.7,2.6c1.3-1.2,3.2-1.4,4.7-0.5c1.9-1.1,4.3-0.5,5.5,1.4c0.1,0.1,0.2,0.3,0.2,0.4c2.2,0,3.9,1.7,4,3.9
		c1.4,1.7,1.2,4.2-0.5,5.6C170.3-263.5,169.8-263.2,169.2-263L169.2-263z"/>
</g>
<path class="st2" d="M137.3-345.3h43c2.9,0,5.2,2.3,5.2,5.2v25.9c0,2.9-2.3,5.2-5.2,5.2h-43c-2.9,0-5.2-2.3-5.2-5.2V-340
	C132.2-343,134.5-345.3,137.3-345.3z"/>
<path class="st6" d="M169-308.8h-20.5c1.1-2.3,2.8-4.1,4.9-5.4c-4.2-2.8-5.7-8.3-3.3-12.8c-1.3-1-2.1-2.1-2.1-3.4
	c0-3.2,4.9-5.8,10.9-5.8s10.9,2.6,10.9,5.8c0,1.3-0.9,2.6-2.3,3.6c2.2,4.5,0.8,9.9-3.4,12.6C166.2-312.8,167.9-311,169-308.8z"/>
<g class="st7">
	<path class="st2" d="M-38.5-285.8h43c2.9,0,5.2,2.3,5.2,5.2v25.9c0,2.9-2.3,5.2-5.2,5.2h-43c-2.9,0-5.2-2.3-5.2-5.2v-25.9
		C-43.7-283.5-41.4-285.8-38.5-285.8z"/>
	<path class="st2" d="M-12.4-252.7c1.5,0.9,2.8,2.1,3.8,3.6H-27c1-1.5,2.3-2.7,3.8-3.6c-4.2-2.8-5.7-8.3-3.3-12.8
		c-1.3-1-2.1-2.1-2.1-3.4c0-3.2,4.9-5.8,10.9-5.8s10.9,2.6,10.9,5.8c0,1.3-0.9,2.6-2.3,3.6C-6.7-261-8.2-255.6-12.4-252.7
		L-12.4-252.7z"/>
	<path class="st2" d="M-38.5-285.8h43c2.9,0,5.2,2.3,5.2,5.2v25.9c0,2.9-2.3,5.2-5.2,5.2h-43c-2.9,0-5.2-2.3-5.2-5.2v-25.9
		C-43.7-283.5-41.4-285.8-38.5-285.8z"/>
	<path class="st6" d="M-12.4-252.7c1.5,0.9,2.8,2.1,3.8,3.6H-27c1-1.5,2.3-2.7,3.8-3.6c-4.2-2.8-5.7-8.3-3.3-12.8
		c-1.3-1-2.1-2.1-2.1-3.4c0-3.2,4.9-5.8,10.9-5.8s10.9,2.6,10.9,5.8c0,1.3-0.9,2.6-2.3,3.6C-6.7-261-8.2-255.6-12.4-252.7
		L-12.4-252.7z"/>
</g>
<linearGradient id="SVGID_1_" gradientUnits="userSpaceOnUse" x1="234.7039" y1="-149.2951" x2="234.7039" y2="-248.37" gradientTransform="matrix(1 0 0 1 -35.6 -69.58)">
	<stop  offset="0" style="stop-color:#808080;stop-opacity:0.25"/>
	<stop  offset="0.54" style="stop-color:#808080;stop-opacity:0.12"/>
	<stop  offset="1" style="stop-color:#808080;stop-opacity:0.1"/>
</linearGradient>
<path class="st8" d="M218.1-229.2c-0.5-0.4-1.1-0.7-1.7-0.9h-0.1c-1.2-0.9-2.4-1.9-3.4-2.9c0.2-0.2,0.4-0.4,0.6-0.5
	c-1.3-0.6-2.1-2.1-2.8-3.4c-1.9-3.5-4.4-6.6-7.4-9.3c-0.1-0.3-0.5-0.2-0.7-0.4c-0.1-0.1-0.2-0.4-0.2-0.6s0.1-0.4,0.2-0.6
	c0.1-0.5,0.1-1,0-1.4c-0.1-0.5,0-1,0.3-1.4c0.1-0.1,0.2-0.2,0.3-0.3c0.2-0.3,0.3-0.6,0.2-1c0-0.3-0.1-0.7-0.2-1l3.3-8.9
	c0.8-2.1,1.5-4.2,1.6-6.4c0.1-1.8-0.4-3.6-1.5-5c0.2,0,0.4-0.1,0.6-0.2c-1.3-1.7-1.4-3.9-1.4-6.1c0-1.1-0.1-2.1-0.1-3.2
	c0.4,0.2,0.7,0.3,1.1,0.4c0.1,0,0.2,0.1,0.4,0.1c0.6,0.2,1.2,0.3,1.8,0.4c0.3,0,0.5,0.1,0.8,0.1l0,0l-1.2-2.9
	c-0.2-0.4-0.3-0.9-0.4-1.4l0,0v-0.1c0-0.1,0-0.1,0-0.2c0-0.1,0-0.3,0.1-0.4c0-0.1,0-0.1,0.1-0.2c0.1-0.2,0.2-0.3,0.3-0.5
	c0.1-0.1,0.2-0.2,0.3-0.4c0.3-0.4,0.6-0.8,0.8-1.3c0.1-0.2,0.1-0.5,0.1-0.7c0-0.3,0-0.5-0.1-0.8c0-0.2-0.1-0.3-0.1-0.5l0,0
	c0-0.1-0.1-0.2-0.1-0.3v-0.1c0-0.1-0.1-0.2-0.1-0.2v-0.1c0-0.1-0.1-0.2-0.1-0.2l0,0c-0.4-1.1-1-2.1-1.3-3.3
	c-0.1-0.3-0.2-0.6-0.2-0.9v-0.2c0-0.1,0-0.1,0-0.2v-0.2c0-0.1,0-0.1,0-0.2c0-0.1,0-0.1,0-0.2c0-0.1,0-0.3,0-0.4v-0.1
	c0-0.1,0-0.2,0-0.3v-0.2c0-0.1,0-0.2,0-0.3v-0.1c0-0.1,0-0.3,0.1-0.4l0,0l0.1-0.4c0.1-0.4,0.1-0.7,0.1-1.1c0-0.1,0-0.1,0-0.2v-0.2
	c0,0,0,0,0-0.1v-0.1c0,0,0,0,0-0.1v-0.1v-0.1v-0.1l0,0c0,0,0-0.1-0.1-0.1l0,0c-0.1-0.2-0.2-0.3-0.3-0.5l0,0c-0.7-1-2-1.7-2.6-2.8
	c-0.4-0.7-0.6-1.4-0.8-2.2c0-0.2-0.1-0.4-0.1-0.5c0-0.1-0.1-0.3-0.1-0.5c0-0.1,0-0.2-0.1-0.3c0,0,0,0,0-0.1l-0.1-0.3c0,0,0,0,0-0.1
	l-0.1-0.3l0,0c0-0.1,0-0.2-0.1-0.3l0,0c0-0.1-0.1-0.2-0.1-0.3l0,0c0-0.1-0.1-0.2-0.1-0.3l0,0c0-0.1-0.1-0.2-0.1-0.3l0,0
	c0-0.1-0.1-0.2-0.1-0.3l0,0c-0.3-0.7-0.7-1.4-1.1-2c-1-1.3-2.6-2.3-4.2-2.2c-0.9,0.1-1.7,0.3-2.5,0.6l-2.1,0.8l0.6-0.3
	c-0.6,0-1.2,0.1-1.8,0.4s-1,0.8-1.1,1.4c0,0.4,0.1,0.7,0.1,1.1c-0.1,0.6-0.6,1-0.9,1.5c-0.2,0.3-0.2,0.7-0.2,1l0,0v0.1l0,0v0.1
	c-0.9-0.4-1.8-0.8-2.7-1.2c-1.5-0.7-3-1.6-3.9-2.9c-0.3-0.4-0.5-0.9-0.8-1.4s-0.7-0.9-1.1-1.3l-2.7-3c-0.2,0.4,0.1,0.9,0.3,1.3
	c0.2,0.4,0.4,0.9,0.5,1.3c0.1,0.1,0.1,0.3,0,0.5c-0.1,0.1-0.2,0.2-0.4,0.3c-0.5,0.3-0.7,1-0.6,1.5c0.2,0.6,0.7,1,1.3,1.1
	c0.2,0,0.4,0.1,0.6,0.1c0.3,0.2,0.5,0.5,0.7,0.8c0.4,0.5,1.1,0.7,1.8,0.9c1,1.2,2.1,2.3,3.1,3.5c1.5,1.8,3.1,3.6,5.1,4.8
	c0.2,0.1,0.4,0.2,0.6,0.3v0.1c-0.1,0.3,0,0.5,0.1,0.8c0.2,0.3,0.5,0.4,0.9,0.4l1.5,0.3c0,0.2,0,0.4-0.1,0.6c0,0.1,0,0.2-0.1,0.3l0,0
	v0.2l0,0v0.1l0,0v0.1l0,0v0.1c0.1,0.6,0.5,1.1,0.8,1.5c0.1,0.1,0.1,0.2,0.2,0.3c-0.3,0.4-0.6,0.9-0.7,1.4c-0.1,0.3-0.1,0.7-0.1,1
	c-0.2,0.2-0.4,0.4-0.5,0.7c-0.1,0.4-0.1,0.7-0.1,1.1l0,0c0,0.1,0,0.3,0,0.4c0,0.5,0.1,1.1,0.3,1.6l0.1,0.1c-0.3,0.7-0.9,1.2-1.3,1.8
	c-0.8,1.4-0.7,3.2,0.4,4.4c0.3,0.4,0.7,0.7,0.7,1.2c0,0.2,0,0.4-0.1,0.6c0,0.5,0.2,1,0.3,1.5c0.1,0.4,0.1,0.9-0.1,1.2
	c-0.2,0.3-0.3,0.8-0.3,1.2c0.1,0.6-0.2,1.3-0.2,1.9c0,0.3,0,0.6,0,0.8c-0.1,0.3-0.1,0.5-0.2,0.8v0.1c-0.6,0.2-1.1,0.5-1.6,0.8
	c-0.3,0.1-0.5,0.3-0.7,0.6c-0.1,0.3-0.1,0.6,0,0.9c0.2,1.1,0.3,2.2,0.5,3.3h-0.1c0,0.5,0.1,1.1,0.1,1.6c0,0.4,0.1,0.8,0.3,1.2
	c0.1,0.1,0.2,0.3,0.3,0.4c0.2,0.4,0,0.8-0.2,1.2s-0.2,0.9,0.1,1.1c0.2,0.1,0.4,0.2,0.6,0.3c-0.5,1.8,0,3.8,0.4,5.7l0.9,4.3
	c0.1,0.6,0.2,1.2,0.2,1.8c0,0.1,0,0.2,0,0.3c0,0.8,0.2,1.7,0.4,2.5c0.5,1.7,0,3.7,0.2,5.5c0.1,0.9,0.3,1.7,0.5,2.6
	c1.1,4.3,2,8.5,2.4,12.8c0.4,0.5,0.9,0.9,1.5,1.1c0,0.5,0,1.2,0,1.5s0,0.5-0.1,0.8c-0.2,0.5-0.7,0.8-1.2,1c-0.2,0.1-0.3,0.1-0.5,0.1
	l0.2-0.2c-1-0.2-2.1,0-2.9,0.5c-0.3,0.1-0.5,0.4-0.6,0.7c0,0.3,0,0.6,0.2,0.8c0.5,0.7,1.2,1.2,2.1,1.5c0.8,0.2,1.7,0.3,2.5,0.4
	l1.6,0.1c-0.1,0.2-0.1,0.4,0.1,0.6c0.2,0.1,0.4,0.2,0.6,0.2c0.6,0.1,1.3,0.1,1.9,0c0.2,0,0.3-0.1,0.4-0.2c0.1-0.1,0.1-0.3,0-0.4l0,0
	c0.2,0,0.4-0.1,0.4-0.3c0.1-0.2,0.1-0.4,0.1-0.6c0-0.7-0.1-1.8-0.5-2.5c-0.1-0.2-0.4-0.4-0.7-0.3c-0.2-1.3-0.4-2.6-0.4-4
	c0.4-0.1,0.8-0.3,1.1-0.5c-1.1-1.8-1.1-4-0.8-6.1c0.1-0.6,0.2-1.3,0.3-2c0.1-1.3-0.1-2.8-0.9-3.9c1.3,0.8,2.5,1.9,3.5,3.1
	c1.5,2,2.5,4.4,4.4,6.1l0.8-0.7c0.4,0.7,0.8,1.4,1.1,2.1c0.3,0.5,0.5,1.1,0.7,1.6c0.2,0.9,0.2,1.8,0.1,2.6c-0.1,0.5-0.1,0.9-0.2,1.4
	c0,0.2-0.1,0.4-0.1,0.6c0-0.1,0-0.1,0-0.2c-0.1-0.2-0.4-0.1-0.6,0c-0.3,0.2-0.6,0.5-0.8,0.9c-0.1,0.2-0.2,0.4-0.1,0.6
	c0.1,0.2,0.2,0.4,0.4,0.6c0.8,0.5,1.9,0.1,2.8-0.2c0.2-0.1,0.5-0.2,0.7-0.3c0.4-0.3,0.7-0.9,1.1-1.2c0.2-0.1,0.5-0.3,0.7-0.4
	c0.4-0.4,0.5-1,0.7-1.5c0.5-0.8,1.6-1,2.1-1.9C219.5-227.3,218.9-228.6,218.1-229.2z"/>
<path class="st9" d="M198.9-225.2c0,0.3,0,0.5-0.1,0.8c-0.2,0.5-0.7,0.8-1.2,1s-1,0.2-1.5,0.4c-0.2,0-0.4,0.2-0.6,0.3
	c-0.4,0.4-0.2,1.2,0.3,1.6c0.5,0.3,1.2,0.3,1.8,0.3c1.3-0.1,2.6-0.3,3.9-0.6c0.5-0.1,1-0.3,1.1-0.8c0-0.1,0-0.3,0-0.4
	c-0.3-1.6-0.5-3.2-0.5-4.8c0-0.1-2.6-0.2-2.8,0C198.7-227.2,198.9-225.7,198.9-225.2z"/>
<path class="st9" d="M210.4-230.9c0.4,0.7,0.8,1.4,1.2,2.2c0.7,1.3,1,2.8,0.7,4.2c-0.1,0.5-0.1,0.9-0.2,1.4c-0.1,0.4-0.2,1-0.6,1.2
	c0.3,0.2,0.8,0.2,1.1,0.1c0.4-0.1,0.7-0.4,1-0.6c1.9-1.6,3.4-3.9,3.4-6.3c0-0.2,0-0.4-0.1-0.6c-0.1-0.1-0.2-0.2-0.3-0.3
	c-1.4-1-2.7-2.1-3.9-3.3c-0.1-0.2-0.3-0.2-0.5-0.1c0,0,0,0-0.1,0c-0.7,0.4-2,0.9-2.3,1.7C210.1-231.2,210.3-231.2,210.4-230.9z"/>
<path class="st1" d="M201.5-222.7c-1.6,0.7-3.4,0.9-5.1,1.1c-0.2,0.1-0.4,0-0.6-0.1c-0.1-0.1-0.1-0.4,0-0.5c0.1-0.2,0.2-0.3,0.4-0.4
	l1.2-1c-1-0.2-2.1,0-2.9,0.5c-0.3,0.1-0.5,0.4-0.6,0.7c0,0.3,0,0.6,0.2,0.8c0.5,0.7,1.2,1.2,2.1,1.4c0.8,0.2,1.7,0.3,2.5,0.3
	l1.6,0.1c-0.1,0.2-0.1,0.4,0.1,0.6c0.2,0.1,0.4,0.2,0.6,0.2c0.6,0.1,1.3,0.1,1.9,0c0.2,0,0.3-0.1,0.4-0.2c0.1-0.1,0.1-0.3,0-0.4l0,0
	c0.2,0,0.4-0.1,0.4-0.3c0.1-0.2,0.1-0.4,0.1-0.6c0-0.7-0.1-1.8-0.5-2.4S202.1-222.8,201.5-222.7z"/>
<path class="st1" d="M218.1-229.1c-0.5-0.4-1.1-0.7-1.7-0.9c-0.1-0.1-0.2-0.1-0.3,0c0,0,0,0,0,0.1c-1.1,1.4-1.9,3-2.4,4.7
	c-0.3,1-0.6,2-1.2,2.8c-0.1,0.1-0.2,0.2-0.3,0.1s-0.1-0.4-0.2-0.5c-0.1-0.2-0.4-0.1-0.6,0c-0.3,0.2-0.6,0.5-0.8,0.9
	c-0.1,0.2-0.2,0.4-0.1,0.6c0.1,0.2,0.2,0.4,0.4,0.5c0.8,0.5,1.9,0.1,2.8-0.2c0.2-0.1,0.5-0.2,0.7-0.3c0.4-0.3,0.7-0.8,1.1-1.1
	c0.2-0.1,0.5-0.3,0.7-0.4c0.4-0.4,0.5-1,0.7-1.5c0.5-0.8,1.6-1,2-1.9C219.4-227.2,218.8-228.4,218.1-229.1z"/>
<path class="st1" d="M205.6-273.5c1.8,1.3,2.5,3.7,2.4,5.8c-0.1,2.2-0.9,4.3-1.6,6.3c-1.1,2.9-2.2,5.9-3.3,8.8
	c0.1,0.3,0.2,0.7,0.2,1c0.1,0.3,0,0.7-0.2,1c-0.1,0.1-0.2,0.2-0.3,0.3c-0.3,0.4-0.4,0.9-0.3,1.4c0.1,0.5,0.1,1,0,1.4
	c-0.1,0.2-0.1,0.4-0.2,0.6c-0.1,0.2,0,0.4,0.2,0.6s0.7,0.1,0.7,0.4c3,2.6,5.5,5.7,7.4,9.1c0.7,1.3,1.5,2.7,2.8,3.4
	c-1.3,1-2.6,2.1-3.8,3.3c-1.9-1.6-2.8-4-4.4-6c-1-1.2-2.1-2.3-3.5-3.1c0.7,1.1,0.9,2.5,0.9,3.8c-0.1,0.7-0.2,1.3-0.3,1.9
	c-0.3,2-0.3,4.2,0.8,6c-1.2,0.6-2.5,1.1-3.8,0.9c-0.8-0.1-1.6-0.5-2.1-1.2c-0.4-4.3-1.3-8.5-2.4-12.7c-0.2-0.8-0.4-1.7-0.5-2.5
	c-0.2-1.8,0.3-3.8-0.2-5.4c-0.2-0.8-0.4-1.6-0.4-2.5c0-0.1,0-0.2,0-0.3c0-0.6-0.1-1.2-0.2-1.8l-1-4.2c-0.4-1.8-0.8-3.8-0.4-5.6
	c-0.2-0.1-0.4-0.2-0.6-0.3c-0.4-0.2-0.3-0.7-0.1-1.1c0.2-0.4,0.4-0.8,0.2-1.2c-0.1-0.2-0.2-0.3-0.3-0.4c-0.2-0.4-0.3-0.8-0.3-1.2
	l-0.1-1.6c0.7,0.3,1.2,0.8,1.6,1.4c-0.9-1.4-0.4-3.3,0.2-4.8c0.2-0.9,1.1-1.6,2-1.6C198.4-274.2,202.7-275.8,205.6-273.5z"/>
<path class="st3" d="M204-264.3c0,0-1.8,1.2-1.8,2s-0.4,8.8-0.4,8.8v5.6c0,0,0.3,2.9,0,3.7c-0.3,0.7,0,4.1,0,4.5s0.4-4.5,0.4-4.5
	v-5.3l0.4-12L204-264.3z"/>
<path class="st9" d="M194.2-305l-1-0.4c-2.1-0.8-4.2-1.7-6.2-2.7c-1.5-0.7-3-1.6-3.9-2.9c-0.3-0.4-0.5-0.9-0.8-1.4s-0.7-0.9-1.1-1.3
	l-2.7-2.9c-0.2,0.4,0.1,0.9,0.3,1.2c0.2,0.4,0.4,0.8,0.5,1.3c0.1,0.1,0,0.3,0,0.4c-0.1,0.1-0.2,0.2-0.4,0.3
	c-0.5,0.3-0.7,0.9-0.6,1.5c0.2,0.6,0.7,1,1.3,1.1c0.2,0,0.4,0.1,0.6,0.1c0.3,0.2,0.5,0.5,0.7,0.8c0.4,0.5,1.1,0.7,1.8,0.9
	c1,1.2,2.1,2.3,3.1,3.4c1.5,1.7,3.1,3.5,5.1,4.7c0.7,0.4,1.5,0.7,2.3,0.9C193.3-301.5,193.7-303.3,194.2-305z"/>
<path class="st10" d="M194.2-305l-1-0.4c-2.1-0.8-4.2-1.7-6.2-2.7c-1.5-0.7-3-1.6-3.9-2.9c-0.3-0.4-0.5-0.9-0.8-1.4
	s-0.7-0.9-1.1-1.3l-2.7-2.9c-0.2,0.4,0.1,0.9,0.3,1.2c0.2,0.4,0.4,0.8,0.5,1.3c0.1,0.1,0,0.3,0,0.4c-0.1,0.1-0.2,0.2-0.4,0.3
	c-0.5,0.3-0.7,0.9-0.6,1.5c0.2,0.6,0.7,1,1.3,1.1c0.2,0,0.4,0.1,0.6,0.1c0.3,0.2,0.5,0.5,0.7,0.8c0.4,0.5,1.1,0.7,1.8,0.9
	c1,1.2,2.1,2.3,3.1,3.4c1.5,1.7,3.1,3.5,5.1,4.7c0.7,0.4,1.5,0.7,2.3,0.9C193.3-301.5,193.7-303.3,194.2-305z"/>
<path class="st11" d="M192.3-299.2c-0.3,0-0.7-0.2-0.9-0.4c-0.1-0.2-0.1-0.5-0.1-0.8c0.2-1.7,0.5-3.3,1.1-4.9
	c0.5,0.9,1.5,1.5,2.4,1.9c0.8,0.5,1.7,0.9,2.6,1.2c-0.2-0.1-0.8,3.4-1.1,3.6c-0.4,0.3-1.3-0.1-1.8-0.2L192.3-299.2z"/>
<circle class="st9" cx="194.7" cy="-304.8" r="4.7"/>
<path class="st12" d="M193.8-301c0,0,3.1,2.6,1.8,4.4s-2,2.9-0.3,3.1c1.8,0.1,7.6-2.9,7.6-2.9s-5.4-4.4-4.5-7
	C199.3-306,193.8-301,193.8-301z"/>
<path class="st11" d="M196.7-296.8c-1.3,0.3-2.4,1.4-2.7,2.7c-0.3,1.6,0.4,3.3-0.3,4.8c-0.3,0.7-0.9,1.2-1.3,1.8
	c-0.8,1.4-0.7,3.1,0.4,4.4c0.3,0.3,0.7,0.7,0.7,1.1c0,0.2,0,0.4-0.1,0.6c0,0.5,0.2,1,0.3,1.4c0.1,0.4,0.1,0.8-0.1,1.2
	c-0.2,0.3-0.3,0.7-0.3,1.2c0.1,0.6-0.2,1.2-0.2,1.9c0,0.3,0,0.5,0,0.8s-0.1,0.5-0.2,0.8l-0.4,1.4c2.1,0.9,4.4,1.3,6.7,1.2
	c2.1,0,4.1-0.5,6.1-0.9c0.6-0.1,1.2-0.3,1.8-0.4c-1.3-1.7-1.4-3.9-1.4-6c-0.1-3.5-0.3-7-0.8-10.4c0.6-1.2,0.9-2.5,1.1-3.8
	c0.1-0.5,0.2-1.1,0.1-1.6c-0.1-1.1-0.6-2.2-1.1-3.2c-0.5-0.9-1-1.9-2-2.3c-0.5-0.2-1.1-0.2-1.5,0.2c-0.8,0.6-0.5,1.6-0.7,2.5
	c-0.3,1.1-1.3,1.9-2.4,2.2c-0.8,0.2-1.7,0.3-2.5,0.2c-0.2,0-0.4-0.2-0.4-0.5c0-0.1,0-0.2,0.1-0.3C196.1-296,196.4-296.5,196.7-296.8
	z"/>
<path class="st9" d="M200.4-278.8c-1.7,1.4-3.5,2.8-5.5,3.9c-1.2,0.6-2.4,1-3.6,1.7c-0.3,0.1-0.5,0.3-0.7,0.6
	c-0.1,0.3-0.1,0.6,0,0.8l0.5,3.5c0.1,0.9,1,1.6,1.8,2.1c-0.1-0.3-0.1-0.6,0-0.8c0.1-0.1,0.1-0.2,0.2-0.3c0.3-0.5,0.4-1.1,0.2-1.6
	c-0.1-0.6-0.2-1.1-0.2-1.7c0-0.2,0.1-0.4,0.2-0.5c2.5-1.2,5.2-2.1,7.7-3.3c0.7-0.3,1.3-0.6,1.9-1.1c0.6-0.4,1-1.1,1.1-1.8
	c0-0.1,0-0.2,0-0.3c-0.1-0.1-0.1-0.1-0.2-0.1C202.7-278,201.5-278.3,200.4-278.8z"/>
<path class="st3" d="M195.5-293.5c-0.9,0.1-1.8,0.6-2.1,1.4c-0.1,0.4-0.1,0.7-0.1,1.1c0,0.5,0.1,1,0.3,1.5c0.1,0.3,0.3,0.5,0.5,0.8
	c2.1,2.6,3.1,6,5.1,8.6c0.2,0.2,0.5,0.5,0.4,0.8c0,0.1-0.1,0.1-0.1,0.2c0,0.1,0,0.3,0.1,0.4c0.1,0.1,0.2,0.2,0.2,0.4
	c0,0.1-0.1,0.3-0.2,0.3c0.2,0.7,1,1.2,1.7,1.5c1.2,0.6,2.5,1,3.7,0.9c0.2-1,0.6-2.1,0.4-3.1c-0.1-0.8-0.4-1.5-0.7-2.2l-0.9-1.9
	c-0.7-1.6-1.5-3.3-2.5-4.7c-0.4-0.5-0.7-1-0.9-1.5c-0.3-0.7-1-1.2-1.4-1.8c-0.7-0.9-1.3-1.8-2.2-2.4
	C196.5-293.3,196-293.5,195.5-293.5z"/>
<path class="st11" d="M195.5-293.8c-0.9,0.1-1.8,0.6-2.1,1.4c-0.1,0.4-0.1,0.7-0.1,1.1c0,0.5,0.1,1,0.3,1.5c0.1,0.3,0.3,0.5,0.5,0.8
	c2.1,2.6,3.1,6,5.1,8.6c0.2,0.2,0.5,0.5,0.4,0.8c0,0.1-0.1,0.1-0.1,0.2c0,0.1,0,0.3,0.1,0.4c0.1,0.1,0.2,0.2,0.2,0.4
	c0,0.1-0.1,0.3-0.2,0.3c0.2,0.7,1,1.2,1.7,1.5c1.2,0.6,2.5,1,3.7,0.9c0.2-1,0.6-2.1,0.4-3.1c-0.1-0.8-0.4-1.5-0.7-2.2l-0.9-1.9
	c-0.7-1.6-1.5-3.3-2.5-4.7c-0.4-0.5-0.7-1-0.9-1.5c-0.3-0.7-1-1.2-1.4-1.8c-0.7-0.9-1.3-1.8-2.2-2.4
	C196.5-293.7,196-294,195.5-293.8z"/>
<path class="st1" d="M193.6-312.5c-0.6,0-1.2,0.1-1.8,0.4c-0.6,0.2-1,0.8-1.1,1.4c0,0.4,0.1,0.7,0.1,1.1c-0.1,0.6-0.6,1-0.9,1.5
	c-0.5,0.9-0.1,2.1,0.5,2.9s1.5,1.4,2.2,2.2c1.1,1.3,1.5,3,1.2,4.7c-0.1,0.3-0.1,0.6-0.1,1c0.1,0.6,0.5,1.1,0.8,1.5
	c1.9,2.2,3.7,4.6,5.3,7c0.5,0.7,0.9,1.5,1.3,2.2c0.4,0.8,0.7,1.7,1.2,2.4c0.5,0.6,1.1,1.1,1.8,1.5c1.7,1,3.6,1.7,5.6,1.8l-1.1-2.8
	c-0.2-0.5-0.4-1-0.3-1.6c0.1-1,1.2-1.7,1.5-2.7c0.2-0.6,0.2-1.3-0.1-2c-0.4-1.4-1.2-2.7-1.7-4.2c-0.4-1.3-0.5-2.6-0.2-3.9
	c0.1-0.6,0.2-1.1,0.2-1.7c-0.2-1.7-2.3-2.6-3.2-4.1c-0.6-0.9-0.7-2.1-0.9-3.2c-0.3-1.6-0.8-3.2-1.8-4.5s-2.6-2.2-4.2-2.1
	c-0.9,0.1-1.7,0.3-2.5,0.6l-2.1,0.8"/>
<g class="st13">
	<path d="M203.2-309c0.2,1,0.3,2,0.8,2.9c-0.1-0.3-0.1-0.7-0.2-1c-0.2-0.9-0.4-1.7-0.7-2.6C203.1-309.3,203.1-309.2,203.2-309z"/>
	<path d="M207.1-299.8c-0.2,1.3-0.1,2.6,0.2,3.9c0.1,0.3,0.2,0.7,0.4,1c-0.2-1-0.2-2,0-3c0.1-0.6,0.2-1.1,0.2-1.7
		c-0.1-0.5-0.3-0.9-0.6-1.3C207.3-300.7,207.2-300.3,207.1-299.8z"/>
	<path d="M209.6-290c-0.1-0.4-0.3-0.8-0.4-1.2c0.1,0.4,0,0.9-0.1,1.3c-0.3,1-1.4,1.6-1.5,2.7c0,0.5,0.1,1.1,0.3,1.6l0.2,0.6
		c0-0.1,0-0.2,0-0.2c0.1-1,1.2-1.7,1.5-2.7C209.8-288.7,209.8-289.3,209.6-290z"/>
	<path d="M203.5-284.7c-0.7-0.4-1.3-0.9-1.8-1.5c-0.5-0.7-0.8-1.6-1.2-2.4s-0.8-1.5-1.3-2.2c-1.6-2.5-3.4-4.8-5.3-7l-0.2-0.2
		c0,0.2-0.1,0.4-0.1,0.6c0.1,0.6,0.5,1.1,0.8,1.5c1.9,2.2,3.7,4.6,5.3,7c0.5,0.7,0.9,1.5,1.3,2.2c0.4,0.8,0.7,1.7,1.2,2.4
		c0.5,0.6,1.1,1.1,1.8,1.5c1.7,1,3.6,1.7,5.6,1.8l-0.8-1.9C207-283,205.1-283.5,203.5-284.7z"/>
	<path d="M192-304.8c-0.7-0.8-1.5-1.4-2.2-2.2c-0.1-0.1-0.1-0.2-0.2-0.2c0,0.8,0.3,1.5,0.8,2.1c0.6,0.8,1.5,1.4,2.2,2.2
		c0.3,0.3,0.5,0.7,0.7,1C193.1-303,192.7-304,192-304.8z"/>
</g>
<path class="st14" d="M187.8-344l-1.6-1.6c-0.3-0.3-0.8-0.3-1.2,0l0,0l-9.7,9.7l-4.1-4.2c-0.3-0.3-0.8-0.3-1.2,0l0,0l-1.6,1.5
	c-0.3,0.3-0.3,0.8,0,1.2l6.3,6.3c0.3,0.3,0.8,0.3,1.2,0l11.9-11.8C188.1-343.2,188.1-343.7,187.8-344C187.8-344,187.8-344,187.8-344
	z"/>
<path class="st14" d="M97.6-286.3L96-288c-0.3-0.3-0.8-0.3-1.2,0l0,0l-9.7,9.7l-4.1-4.2c-0.3-0.3-0.8-0.3-1.2,0l0,0l-1.6,1.5
	c-0.3,0.3-0.3,0.8,0,1.2l6.3,6.3c0.3,0.3,0.8,0.3,1.2,0l11.9-11.8C97.9-285.5,97.9-286,97.6-286.3z"/>
</svg>
